{"title":"Diary.of.a.Wimpy.Kid.2.Rodrick.Rules.2011.BRRip.AC3.XViD-EP1C","uid":6427169,"size":1483894879,"categoryP":"video","categoryS":"movies","magnet":"?xt=urn:btih:018de101b5abeaae2fc3b9c976ae310cec8637b5&amp;dn=Diary.of.a.Wimpy.Kid.2.Rodrick.Rules.2011.BRRip.AC3.XViD-EP1C&amp;tr=udp%3A%2F%2Ftracker.openbittorrent.com%3A80&amp;tr=udp%3A%2F%2Fopen.demonii.com%3A1337&amp;tr=udp%3A%2F%2Ftracker.coppersurfer.tk%3A6969&amp;tr=udp%3A%2F%2Fexodus.desync.com%3A6969","seeders":0,"leechers":1,"uploader":"SAFCukO09","files":4,"time":1306516746,"description":":::::::::::: EP1C Presents ::::::::::::\n\n::File:: Diary.of.a.Wimpy.Kid.2.Rodrick.Rules.2011.BRRip.AC3.XViD-EP1C\n\n::Video Source:: Diary.of.a.Wimpy.Kid.2.Rodrick.Rules.2011.720p.BluRay.x264.DTS-WiKi\n\n::Language:::::: English\n::IMDB:::::::::: http://www.imdb.com/title/tt1650043/\nBack in middle school after summer vacation, Greg Heffley and his older\nbrother Rodrick must deal with their parents' misguided attempts to have them bond.\n\n::Specs:::::::::\n\nFormat : AVI\nFormat/Info : Audio Video Interleave\nFile size : 1.37 GiB\nDuration : 1h 39mn\nOverall bit rate : 1 970 Kbps\nWriting application : VirtualDubMod 1.5.10.2 (build 2540/release)\nWriting library : VirtualDubMod build 2540/release\n\nVideo\nID : 0\nFormat : MPEG-4 Visual\nFormat profile : Advanced Simple@L5\nFormat settings, BVOP : Yes\nFormat settings, QPel : No\nFormat settings, GMC : No warppoints\nFormat settings, Matrix : Default (MPEG)\nMuxing mode : Packed bitstream\nCodec ID : XVID\nCodec ID/Hint : XviD\nDuration : 1h 39mn\nBit rate : 1 513 Kbps\nWidth : 720 pixels\nHeight : 304 pixels\nDisplay aspect ratio : 2.35:1\nFrame rate : 23.976 fps\nColor space : YUV\nChroma subsampling : 4:2:0\nBit depth : 8 bits\nScan type : Progressive\nBits/(Pixel*Frame) : 0.288\nStream size : 1.05 GiB (77%)\nWriting library : XviD 58\n\nAudio\nID : 1\nFormat : AC-3\nFormat/Info : Audio Coding 3\nMode extension : CM (complete main)\nCodec ID : 2000\nDuration : 1h 39mn\nBit rate mode : Constant\nBit rate : 448 Kbps\nChannel(s) : 6 channels\nChannel positions : Front: L C R, Side: L R, LFE\nSampling rate : 48.0 KHz\nBit depth : 16 bits\nStream size : 319 MiB (23%)\nAlignment : Split accross interleaves\nInterleave, duration : 42 ms (1.00 video frame)\nInterleave, preload duration : 500 ms\n\n::NOTES:::::::::\nPresents Diary of a Wimpy Kid 2: Rodrick Rules BRRIP.\n\nEnjoy. //iNK\n\n:: Got something we might be interested in? contact us: &lt;a class=&quot;__cf_email__&quot; href=&quot;/cdn-cgi/l/email-protection&quot; data-cfemail=&quot;117461787251796462797c70787d3f7c74&quot;&gt;[email&amp;#160;protected]&lt;/a&gt;&lt;script cf-hash='f9e31' type=&quot;text/javascript&quot;&gt;\n/* &lt;![CDATA[ */!function(){try{var t=&quot;currentScript&quot;in document?document.currentScript:function(){for(var t=document.getElementsByTagName(&quot;script&quot;),e=t.length;e--;)if(t[e].getAttribute(&quot;cf-hash&quot;))return t[e]}();if(t&amp;&amp;t.previousSibling){var e,r,n,i,c=t.previousSibling,a=c.getAttribute(&quot;data-cfemail&quot;);if(a){for(e=&quot;&quot;,r=parseInt(a.substr(0,2),16),n=2;a.length-n;n+=2)i=parseInt(a.substr(n,2),16)^r,e+=String.fromCharCode(i);e=document.createTextNode(e),c.parentNode.replaceChild(e,c)}}}catch(u){}}();/* ]]&gt; */&lt;/script&gt; ::\n\n:::::::::::::::::::::::::::::::: RESPECT :::::::::::::::::::::::::::::::::\nIMAGiNE, Rx, FLAWL3SS, ViSiON, T0XiC, HiVE, bobwhite &amp; All Our Friends!\n\n:::::::::::::::: We Are ::::::::::::::::\n:::::: Surpassing the usual or ordinary ::::::\n:::::::::::::::::: Heroic and impressive in quality ::::::::::::::::::\n:::::::::::::::::::::::::::::::: EP1C ::::::::::::::::::::::::::::::::","torrent":{"xt":"urn:btih:018de101b5abeaae2fc3b9c976ae310cec8637b5","amp;dn":"Diary.of.a.Wimpy.Kid.2.Rodrick.Rules.2011.BRRip.AC3.XViD-EP1C","amp;tr":["udp%3A%2F%2Ftracker.openbittorrent.com%3A80","udp%3A%2F%2Fopen.demonii.com%3A1337","udp%3A%2F%2Ftracker.coppersurfer.tk%3A6969","udp%3A%2F%2Fexodus.desync.com%3A6969"],"infoHash":"018de101b5abeaae2fc3b9c976ae310cec8637b5","infoHashBuffer":{"type":"Buffer","data":[1,141,225,1,181,171,234,174,47,195,185,201,118,174,49,12,236,134,55,181]},"announce":[],"urlList":[]}}